<?xml version="1.0" encoding="UTF-8"?>
<svg version="1.1" xmlns="http://www.w3.org/2000/svg" width="200" height="200">
<path d="M0 0 C66 0 132 0 200 0 C200 66 200 132 200 200 C134 200 68 200 0 200 C0 134 0 68 0 0 Z " fill="#0A192F" transform="translate(0,0)"/>
<path d="M0 0 C66 0 132 0 200 0 C200 66 200 132 200 200 C134 200 68 200 0 200 C0 134 0 68 0 0 Z M11 15 C10.67 15.33 10.34 15.66 10 16 C9.89206742 18.15275274 9.85585299 20.30910389 9.84609985 22.46453857 C9.8417176 23.14790197 9.83733535 23.83126536 9.8328203 24.53533673 C9.8193864 26.84224539 9.81324318 29.14911581 9.80712891 31.45605469 C9.79923148 33.10324275 9.79096275 34.75042906 9.78234863 36.39761353 C9.75608446 41.82235044 9.74081552 47.24709524 9.7265625 52.671875 C9.72120441 54.53683732 9.71582691 56.40179958 9.71043015 58.26676178 C9.68879397 66.02333786 9.67005657 73.77991182 9.65880775 81.53651047 C9.64256543 92.66462096 9.6093893 103.7923824 9.55240691 114.92036128 C9.51373758 122.73780476 9.49417857 130.55515477 9.48888719 138.37269139 C9.48522925 143.04495263 9.47316169 147.71684198 9.44078445 152.38899994 C9.41075699 156.78527655 9.40437277 161.18095525 9.41616821 165.57731247 C9.4163894 167.19101818 9.4080466 168.80475118 9.39051437 170.41836166 C9.36787331 172.62213903 9.37609093 174.82373904 9.39199829 177.02752686 C9.38868814 178.26050884 9.385378 179.49349083 9.38196754 180.76383591 C10.16846058 184.88209941 11.8453775 186.34244389 15 189 C15.33 189.33 15.66 189.66 16 190 C18.15275274 190.10793258 20.30910389 190.14414701 22.46453857 190.15390015 C23.14790197 190.1582824 23.83126536 190.16266465 24.53533673 190.1671797 C26.84224539 190.1806136 29.14911581 190.18675682 31.45605469 190.19287109 C33.10324275 190.20076852 34.75042906 190.20903725 36.39761353 190.21765137 C41.82235044 190.24391554 47.24709524 190.25918448 52.671875 190.2734375 C54.53683732 190.27879559 56.40179958 190.28417309 58.26676178 190.28956985 C66.02333786 190.31120603 73.77991182 190.32994343 81.53651047 190.34119225 C92.66462096 190.35743457 103.7923824 190.3906107 114.92036128 190.44759309 C122.73780476 190.48626242 130.55515477 190.50582143 138.37269139 190.51111281 C143.04495263 190.51477075 147.71684198 190.52683831 152.38899994 190.55921555 C156.78527655 190.58924301 161.18095525 190.59562723 165.57731247 190.58383179 C167.19101818 190.5836106 168.80475118 190.5919534 170.41836166 190.60948563 C172.62213903 190.63212669 174.82373904 190.62390907 177.02752686 190.60800171 C178.26050884 190.61131186 179.49349083 190.614622 180.76383591 190.61803246 C184.88209941 189.83153942 186.34244389 188.1546225 189 185 C189.33 184.67 189.66 184.34 190 184 C190.10793258 181.84724726 190.14414701 179.69089611 190.15390015 177.53546143 C190.1582824 176.85209803 190.16266465 176.16873464 190.1671797 175.46466327 C190.1806136 173.15775461 190.18675682 170.85088419 190.19287109 168.54394531 C190.20076852 166.89675725 190.20903725 165.24957094 190.21765137 163.60238647 C190.24391554 158.17764956 190.25918448 152.75290476 190.2734375 147.328125 C190.27879559 145.46316268 190.28417309 143.59820042 190.28956985 141.73323822 C190.31120603 133.97666214 190.32994343 126.22008818 190.34119225 118.46348953 C190.35743457 107.33537904 190.3906107 96.2076176 190.44759309 85.07963872 C190.48626242 77.26219524 190.50582143 69.44484523 190.51111281 61.62730861 C190.51477075 56.95504737 190.52683831 52.28315802 190.55921555 47.61100006 C190.58924301 43.21472345 190.59562723 38.81904475 190.58383179 34.42268753 C190.5836106 32.80898182 190.5919534 31.19524882 190.60948563 29.58163834 C190.63212669 27.37786097 190.62390907 25.17626096 190.60800171 22.97247314 C190.61131186 21.73949116 190.614622 20.50650917 190.61803246 19.23616409 C189.83153942 15.11790059 188.1546225 13.65755611 185 11 C184.67 10.67 184.34 10.34 184 10 C181.84724726 9.89206742 179.69089611 9.85585299 177.53546143 9.84609985 C176.85209803 9.8417176 176.16873464 9.83733535 175.46466327 9.8328203 C173.15775461 9.8193864 170.85088419 9.81324318 168.54394531 9.80712891 C166.89675725 9.79923148 165.24957094 9.79096275 163.60238647 9.78234863 C158.17764956 9.75608446 152.75290476 9.74081552 147.328125 9.7265625 C145.46316268 9.72120441 143.59820042 9.71582691 141.73323822 9.71043015 C133.97666214 9.68879397 126.22008818 9.67005657 118.46348953 9.65880775 C107.33537904 9.64256543 96.2076176 9.6093893 85.07963872 9.55240691 C77.26219524 9.51373758 69.44484523 9.49417857 61.62730861 9.48888719 C56.95504737 9.48522925 52.28315802 9.47316169 47.61100006 9.44078445 C43.21472345 9.41075699 38.81904475 9.40437277 34.42268753 9.41616821 C32.80898182 9.4163894 31.19524882 9.4080466 29.58163834 9.39051437 C27.37786097 9.36787331 25.17626096 9.37609093 22.97247314 9.39199829 C21.73949116 9.38868814 20.50650917 9.385378 19.23616409 9.38196754 C15.11790059 10.16846058 13.65755611 11.8453775 11 15 Z " fill="#63FED9" transform="translate(0,0)"/>
<path d="M0 0 C5.28 0 10.56 0 16 0 C16 22.77 16 45.54 16 69 C28.21 69 40.42 69 53 69 C53 73.62 53 78.24 53 83 C35.51 83 18.02 83 0 83 C0 55.61 0 28.22 0 0 Z " fill="#64FFDA" transform="translate(77,58)"/>
<path d="M0 0 C0.33 0 0.66 0 1 0 C1 5.28 1 10.56 1 16 C-4.28 16 -9.56 16 -15 16 C-12 14 -12 14 -8.5625 12.3125 C-3.58897782 9.51555095 -1.77782125 5.33346374 0 0 Z " fill="#0D2336" transform="translate(199,184)"/>
<path d="M0 0 C2 3 2 3 3.75 6.4375 C5.82388348 10.11922573 8.32183791 11.88701327 12 14 C12.99 14.66 13.98 15.32 15 16 C10.05 16 5.1 16 0 16 C0 10.72 0 5.44 0 0 Z " fill="#0C2034" transform="translate(0,184)"/>
<path d="M0 0 C5.28 0 10.56 0 16 0 C16 4.95 16 9.9 16 15 C14.97430056 13.46145084 13.95234814 11.91751827 13.02734375 10.31640625 C9.70683803 4.97265332 5.84983619 3.05190333 0 1 C0 0.67 0 0.34 0 0 Z " fill="#0C2034" transform="translate(184,0)"/>
<path d="M0 0 C4.95 0 9.9 0 15 0 C13.45620382 1.02919745 11.9083859 2.05484092 10.31640625 3.0078125 C5.34809679 6.17248178 3.16849931 9.57201726 1 15 C0.67 15 0.34 15 0 15 C0 10.05 0 5.1 0 0 Z " fill="#0B1D32" transform="translate(0,0)"/>
</svg>
